<svg version="1" xmlns="http://www.w3.org/2000/svg" width="1133.333" height="1133.333" viewBox="0 0 850.000000 850.000000"><path d="M573.9 53.1c-4.1 1.8-4.9 2.7-6.7 7.2-38.3 99.2-127.2 327.1-134.9 346.2-43.7 108.2-78.4 202.9-104.3 285-12 38-24.1 68.7-30.1 76.4-2.5 3.1-2.4 4.5.6 10.9l2.5 5.3-2.5 3.9c-1.4 2.2-2.5 4.2-2.5 4.4 0 1 11.6 8.4 18.5 11.9 12.7 6.4 22.7 8.2 28.4 5.3 19-9.9 56.8-89.2 111.6-234.6l4.7-12.5 13.7-6.3c14.2-6.5 32.8-17 39.3-22.2 2.3-1.9 4.8-3 6.7-3 1.7 0 3.1.2 3.1.5s6.3 20.1 14 44c14.4 44.6 20.6 60.3 31.4 79.4 16.2 28.7 40 56.3 67.7 78.7 10 8.1 12.1 9.4 15.3 9.4 6.6 0 34.8-11.9 41.5-17.5 4.5-3.9 4.2-7.9-2-22.8-6.1-14.5-10.3-22.8-13.6-26.3-1.6-1.7-15.2-35.8-38.9-96.7-41.8-108.3-39.8-101-31.1-109.4 6.9-6.7 28.1-23.1 56.9-44 35.1-25.5 35.3-25.6 56-37.5 63-36.1 107-68.5 123.2-90.7 3.8-5.2 4.6-7.1 4.6-10.6 0-3.7-.5-4.7-4.2-8-2.2-2.1-7.9-5.5-12.5-7.7l-8.4-3.9-15.2 2c-8.4 1.1-19.1 2.4-24 3-39.6 4.6-119.6 51-240.8 139.6-15.2 11.1-28.1 20.5-28.8 20.9-.6.4 0-2.1 1.3-5.6 1.3-3.5 10.4-27 20.1-52.3 75.2-195.4 112.4-306 107.5-319-1.9-5.1-4.6-5.5-35.2-5.5-26.3.1-28.6.2-32.9 2.1zM376 62.9c-36.7 7.8-76.2 39.5-123.6 99.1-33.4 42-80.1 114-94.9 146.2-17.2 37.5-34.1 61.4-46.9 66.3-4.8 1.9-4.9 1.9-11.2-.4-10.1-3.6-16-3.8-22.1-.8l-5.1 2.6-1.7-2.6c-1.7-2.5-1.8-2.5-11.9-2.1-11.4.5-17.8 2.7-23.5 8.1-7 6.7-8.6 14.6-5.2 25.6 4.1 13.2 17.5 28.4 36.2 41 5.2 3.6 9.5 6.5 9.7 6.7.2.1-4.4 12.5-10.1 27.6-35.2 91.6-54.4 154.3-58.8 191.2-1.8 15-.7 42 2.1 53 9.8 38.8 38.6 65.9 87.9 82.7l12.4 4.2 8.5-1.7c26.7-5.6 52.6-19.2 75.7-40 8.1-7.3 16.8-19.3 42.8-59.5 58.8-90.5 104.9-182 130.5-258.6 7.4-22 14.2-45.5 14.2-48.8 0-1.4-1.2-4-2.6-5.7-8.6-10.2-39-16.6-96.6-20.5-9.4-.7-9.8-.6-9.8 1.4 0 3.4-3.5 4.4-12.4 3.7-7.1-.6-27.9-3.7-34.3-5.1-1.8-.4-2.3-.1-2.3 1.4 0 1.1-.9 2.5-2 3.1-2.8 1.5-2.6.4 1.6-9.8C245 317 294.9 249.6 374.4 166l16.7-17.5 13.2-1.2c23.1-2.1 40.6-6.2 50.3-11.9 5.6-3.3 10.8-9.2 12.4-13.9 3.9-11.7-4.2-28.5-18.6-38.5-10.2-7.1-28.8-14.8-47.4-19.6-11.2-2.8-13.7-2.9-25-.5zM258.3 470.6c-34.8 75.9-72.2 141.3-108.2 189.2-11.3 15-30 37.1-37.2 43.9l-3.4 3.3-2.8-13.4-2.8-13.4 4.2-18.3c21.7-96.3 46.6-164.4 72.4-198l4.6-5.9h35.7c35.5-.1 35.7-.1 40.2-2.5 2.5-1.2 4.6-2.2 4.8-2 .1.1-3.2 7.8-7.5 17.1z"/></svg>